<svg xmlns="http://www.w3.org/2000/svg" viewBox="0 0 960 720" width="960" height="720">
  <style>
    text { font-family: -apple-system, BlinkMacSystemFont, 'Segoe UI', 'Helvetica Neue', Arial, sans-serif; }
    .layer-label { font-size: 13px; font-weight: 600; fill: #6a6a6a; }
    .node-title { font-size: 15px; font-weight: 700; fill: #1a1a1a; }
    .node-sub { font-size: 12px; font-weight: 400; fill: #4a4a4a; }
    .arrow-label { font-size: 12px; fill: #5a5a5a; }
  </style>
  <defs>
    <marker id="arrow" markerWidth="8" markerHeight="8" refX="7" refY="4" orient="auto">
      <polygon points="0 0, 8 4, 0 8" fill="#5a5a5a"/>
    </marker>
    <marker id="arrow-blue" markerWidth="8" markerHeight="8" refX="7" refY="4" orient="auto">
      <polygon points="0 0, 8 4, 0 8" fill="#2563eb"/>
    </marker>
    <filter id="shadow">
      <feDropShadow dx="0" dy="2" stdDeviation="4" flood-color="#00000010"/>
    </filter>
  </defs>

  <!-- Background -->
  <rect width="960" height="720" fill="#f8f6f3" rx="0"/>

  <!-- Title -->
  <text x="480" y="38" text-anchor="middle" fill="#1a1a1a" font-size="22" font-weight="700">Gentle-Vanguard</text>
  <text x="480" y="58" text-anchor="middle" fill="#6a6a6a" font-size="14" font-weight="400">5-Layer Architecture</text>

  <!-- Layer 5: MEMORY (bottom-first conceptually, drawn at top for flow) -->
  <!-- Layer backgrounds -->
  <rect x="80" y="75" width="800" height="95" rx="8" fill="#e8e6e3" opacity="0.35" stroke="#9a9a9a" stroke-width="1" stroke-dasharray="4,2"/>
  <text x="95" y="93" class="layer-label">LAYER 5</text>
  <text x="95" y="108" class="layer-label" font-size="11" fill="#8a8a8a">MEMORY</text>

  <rect x="80" y="180" width="800" height="110" rx="8" fill="#f4e4c1" opacity="0.3" stroke="#b89a50" stroke-width="1" stroke-dasharray="4,2"/>
  <text x="95" y="198" class="layer-label">LAYER 4</text>
  <text x="95" y="213" class="layer-label" font-size="11" fill="#b89a50">SKILLS</text>

  <rect x="80" y="300" width="800" height="105" rx="8" fill="#f4e4c1" opacity="0.2" stroke="#b89a50" stroke-width="1" stroke-dasharray="4,2"/>
  <text x="95" y="318" class="layer-label">LAYER 3</text>
  <text x="95" y="333" class="layer-label" font-size="11" fill="#8a8a8a">MCP SERVERS</text>

  <rect x="80" y="415" width="800" height="105" rx="8" fill="#a8c5e6" opacity="0.2" stroke="#5a8abf" stroke-width="1" stroke-dasharray="4,2"/>
  <text x="95" y="433" class="layer-label">LAYER 2</text>
  <text x="95" y="448" class="layer-label" font-size="11" fill="#5a8abf">COMMANDS</text>

  <rect x="80" y="530" width="800" height="110" rx="8" fill="#9dd4c7" opacity="0.25" stroke="#4a9a80" stroke-width="1" stroke-dasharray="4,2"/>
  <text x="95" y="548" class="layer-label">LAYER 1</text>
  <text x="95" y="563" class="layer-label" font-size="11" fill="#4a9a80">AGENTS</text>

  <!-- L5: Memory nodes -->
  <rect x="290" y="95" width="180" height="60" rx="12" fill="#e8e6e3" stroke="#4a4a4a" stroke-width="2" filter="url(#shadow)"/>
  <text x="380" y="121" text-anchor="middle" class="node-title">Engram</text>
  <text x="380" y="139" text-anchor="middle" class="node-sub">Persistent cross-session</text>

  <rect x="510" y="95" width="180" height="60" rx="12" fill="#e8e6e3" stroke="#4a4a4a" stroke-width="2" filter="url(#shadow)"/>
  <text x="600" y="121" text-anchor="middle" class="node-title">Session State</text>
  <text x="600" y="139" text-anchor="middle" class="node-sub">Hot / Warm / Cold tiers</text>

  <!-- L4: Skills nodes -->
  <rect x="170" y="200" width="170" height="70" rx="12" fill="#f4e4c1" stroke="#4a4a4a" stroke-width="2" filter="url(#shadow)"/>
  <text x="255" y="229" text-anchor="middle" class="node-title">Frontend Skills</text>
  <text x="255" y="247" text-anchor="middle" class="node-sub">React, Angular, Next.js</text>
  <text x="255" y="260" text-anchor="middle" class="node-sub">Tailwind, Zustand</text>

  <rect x="370" y="200" width="170" height="70" rx="12" fill="#f4e4c1" stroke="#4a4a4a" stroke-width="2" filter="url(#shadow)"/>
  <text x="455" y="229" text-anchor="middle" class="node-title">Backend Skills</text>
  <text x="455" y="247" text-anchor="middle" class="node-sub">Go, Django, Node</text>
  <text x="455" y="260" text-anchor="middle" class="node-sub">PostgreSQL, Redis</text>

  <rect x="570" y="200" width="170" height="70" rx="12" fill="#f4e4c1" stroke="#4a4a4a" stroke-width="2" filter="url(#shadow)"/>
  <text x="655" y="229" text-anchor="middle" class="node-title">DevOps Skills</text>
  <text x="655" y="247" text-anchor="middle" class="node-sub">Docker, K8s, Terraform</text>
  <text x="655" y="260" text-anchor="middle" class="node-sub">CI/CD, Security</text>

  <!-- L3: MCP Servers -->
  <rect x="290" y="315" width="180" height="70" rx="12" fill="#ffffff" stroke="#4a4a4a" stroke-width="2" filter="url(#shadow)"/>
  <text x="380" y="340" text-anchor="middle" class="node-title">MCP Server</text>
  <text x="380" y="358" text-anchor="middle" class="node-sub">Model Context Protocol</text>
  <text x="380" y="371" text-anchor="middle" class="node-sub">Tool registry + routing</text>

  <rect x="510" y="315" width="180" height="70" rx="12" fill="#ffffff" stroke="#4a4a4a" stroke-width="2" filter="url(#shadow)"/>
  <text x="600" y="340" text-anchor="middle" class="node-title">Engram MCP</text>
  <text x="600" y="358" text-anchor="middle" class="node-sub">Persistent memory</text>
  <text x="600" y="371" text-anchor="middle" class="node-sub">Cross-session context</text>

  <!-- L2: Commands -->
  <rect x="200" y="430" width="200" height="70" rx="12" fill="#a8c5e6" stroke="#4a4a4a" stroke-width="2.5" filter="url(#shadow)"/>
  <text x="300" y="459" text-anchor="middle" class="node-title">gv.ps1</text>
  <text x="300" y="477" text-anchor="middle" class="node-sub">CLI entry point</text>
  <text x="300" y="490" text-anchor="middle" class="node-sub">40+ subcommands</text>

  <rect x="440" y="430" width="250" height="70" rx="12" fill="#a8c5e6" stroke="#4a4a4a" stroke-width="2.5" filter="url(#shadow)"/>
  <text x="565" y="459" text-anchor="middle" class="node-title">pre-process-input.ps1</text>
  <text x="565" y="477" text-anchor="middle" class="node-sub">Auto-delegation router</text>
  <text x="565" y="490" text-anchor="middle" class="node-sub">Skill trigger engine</text>

  <!-- L1: Agents -->
  <rect x="120" y="548" width="100" height="72" rx="12" fill="#9dd4c7" stroke="#4a4a4a" stroke-width="2.5" filter="url(#shadow)"/>
  <text x="170" y="579" text-anchor="middle" class="node-title">BA</text>
  <text x="170" y="596" text-anchor="middle" class="node-sub">Business</text>
  <text x="170" y="609" text-anchor="middle" class="node-sub">Analyst</text>

  <rect x="240" y="548" width="100" height="72" rx="12" fill="#9dd4c7" stroke="#4a4a4a" stroke-width="2.5" filter="url(#shadow)"/>
  <text x="290" y="579" text-anchor="middle" class="node-title">DEV</text>
  <text x="290" y="596" text-anchor="middle" class="node-sub">Developer</text>
  <text x="290" y="609" text-anchor="middle" class="node-sub">Implementer</text>

  <rect x="360" y="548" width="100" height="72" rx="12" fill="#9dd4c7" stroke="#4a4a4a" stroke-width="2.5" filter="url(#shadow)"/>
  <text x="410" y="579" text-anchor="middle" class="node-title">QA</text>
  <text x="410" y="596" text-anchor="middle" class="node-sub">Quality</text>
  <text x="410" y="609" text-anchor="middle" class="node-sub">Assurance</text>

  <rect x="480" y="548" width="100" height="72" rx="12" fill="#9dd4c7" stroke="#4a4a4a" stroke-width="2.5" filter="url(#shadow)"/>
  <text x="530" y="579" text-anchor="middle" class="node-title">OPS</text>
  <text x="530" y="596" text-anchor="middle" class="node-sub">Operations</text>
  <text x="530" y="609" text-anchor="middle" class="node-sub">Deploy</text>

  <rect x="600" y="548" width="100" height="72" rx="12" fill="#9dd4c7" stroke="#4a4a4a" stroke-width="2.5" filter="url(#shadow)"/>
  <text x="650" y="579" text-anchor="middle" class="node-title">GOV</text>
  <text x="650" y="596" text-anchor="middle" class="node-sub">Governance</text>
  <text x="650" y="609" text-anchor="middle" class="node-sub">Audit</text>

  <rect x="720" y="548" width="100" height="72" rx="12" fill="#9dd4c7" stroke="#4a4a4a" stroke-width="2.5" filter="url(#shadow)"/>
  <text x="770" y="579" text-anchor="middle" class="node-title">DOC</text>
  <text x="770" y="596" text-anchor="middle" class="node-sub">Document</text>
  <text x="770" y="609" text-anchor="middle" class="node-sub">Writer</text>

  <!-- Arrows: Agents -> Commands (upward flow = delegation requests) -->
  <line x1="170" y1="548" x2="280" y2="500" stroke="#5a5a5a" stroke-width="2" marker-end="url(#arrow)"/>
  <line x1="290" y1="548" x2="300" y2="500" stroke="#5a5a5a" stroke-width="2" marker-end="url(#arrow)"/>
  <line x1="410" y1="548" x2="530" y2="500" stroke="#5a5a5a" stroke-width="2" marker-end="url(#arrow)"/>
  <line x1="530" y1="548" x2="565" y2="500" stroke="#5a5a5a" stroke-width="2" marker-end="url(#arrow)"/>
  <line x1="650" y1="548" x2="580" y2="500" stroke="#5a5a5a" stroke-width="2" marker-end="url(#arrow)"/>
  <line x1="770" y1="548" x2="640" y2="500" stroke="#5a5a5a" stroke-width="2" marker-end="url(#arrow)"/>

  <!-- Arrows: Commands -> MCP (delegation routes through) -->
  <line x1="300" y1="430" x2="370" y2="385" stroke="#2563eb" stroke-width="2" marker-end="url(#arrow-blue)"/>
  <line x1="565" y1="430" x2="590" y2="385" stroke="#2563eb" stroke-width="2" marker-end="url(#arrow-blue)"/>

  <!-- Arrows: MCP -> Skills (skill activation) -->
  <line x1="380" y1="315" x2="290" y2="270" stroke="#5a5a5a" stroke-width="2" marker-end="url(#arrow)" stroke-dasharray="5,3"/>
  <line x1="380" y1="315" x2="455" y2="270" stroke="#5a5a5a" stroke-width="2" marker-end="url(#arrow)" stroke-dasharray="5,3"/>
  <line x1="600" y1="315" x2="655" y2="270" stroke="#5a5a5a" stroke-width="2" marker-end="url(#arrow)" stroke-dasharray="5,3"/>

  <!-- Arrows: Skills -> Memory (read/write) -->
  <line x1="380" y1="155" x2="380" y2="200" stroke="#5a5a5a" stroke-width="2" marker-end="url(#arrow)" stroke-dasharray="5,3"/>
  <line x1="600" y1="155" x2="600" y2="200" stroke="#5a5a5a" stroke-width="2" marker-end="url(#arrow)" stroke-dasharray="5,3"/>
  <line x1="290" y1="270" x2="350" y2="155" stroke="#5a5a5a" stroke-width="1.5" marker-end="url(#arrow)"/>
  <line x1="655" y1="270" x2="620" y2="155" stroke="#5a5a5a" stroke-width="1.5" marker-end="url(#arrow)"/>

  <!-- Arrow labels -->
  <text x="230" y="525" class="arrow-label" text-anchor="middle">delegate</text>
  <text x="340" y="408" class="arrow-label" text-anchor="middle" fill="#2563eb">route</text>
  <text x="620" y="408" class="arrow-label" text-anchor="middle" fill="#2563eb">trigger</text>
  <text x="310" y="290" class="arrow-label" text-anchor="middle">activate</text>
  <text x="630" y="290" class="arrow-label" text-anchor="middle">activate</text>
  <text x="325" y="175" class="arrow-label" text-anchor="middle">read/write</text>

  <!-- Legend -->
  <rect x="740" y="660" width="200" height="50" rx="8" fill="#ffffff" stroke="#4a4a4a" stroke-width="1.5"/>
  <text x="755" y="678" fill="#1a1a1a" font-size="12" font-weight="600">Legend</text>
  <line x1="755" y1="693" x2="785" y2="693" stroke="#5a5a5a" stroke-width="2"/>
  <text x="792" y="697" fill="#6a6a6a" font-size="11">Data flow</text>
  <line x1="840" y1="693" x2="870" y2="693" stroke="#2563eb" stroke-width="2"/>
  <text x="877" y="697" fill="#6a6a6a" font-size="11">Control</text>

  <!-- Agnostic bar -->
  <rect x="80" y="648" width="600" height="28" rx="6" fill="#ffffff" stroke="#9a9a9a" stroke-width="1"/>
  <text x="380" y="667" text-anchor="middle" fill="#4a4a4a" font-size="12" font-weight="500">Compatible: OpenCode | Cursor | Codex | Windsurf | VS Code | Cline | Claude</text>
</svg>
