<svg xmlns="http://www.w3.org/2000/svg" viewBox="0 0 900 600">
<defs><linearGradient id="bg" x1="0" y1="0" x2="0" y2="1"><stop offset="0%" stop-color="#0a0e1a"/><stop offset="100%" stop-color="#0f1525"/></linearGradient>
<linearGradient id="l1" x1="0" y1="0" x2="1" y2="0"><stop offset="0%" stop-color="#00bfff" stop-opacity=".25"/><stop offset="100%" stop-color="#00bfff" stop-opacity=".05"/></linearGradient>
<linearGradient id="l2" x1="0" y1="0" x2="1" y2="0"><stop offset="0%" stop-color="#a855f7" stop-opacity=".25"/><stop offset="100%" stop-color="#a855f7" stop-opacity=".05"/></linearGradient>
<linearGradient id="l3" x1="0" y1="0" x2="1" y2="0"><stop offset="0%" stop-color="#22c55e" stop-opacity=".25"/><stop offset="100%" stop-color="#22c55e" stop-opacity=".05"/></linearGradient>
<linearGradient id="l4" x1="0" y1="0" x2="1" y2="0"><stop offset="0%" stop-color="#f59e0b" stop-opacity=".25"/><stop offset="100%" stop-color="#f59e0b" stop-opacity=".05"/></linearGradient>
<linearGradient id="l5" x1="0" y1="0" x2="1" y2="0"><stop offset="0%" stop-color="#ef4444" stop-opacity=".25"/><stop offset="100%" stop-color="#ef4444" stop-opacity=".05"/></linearGradient>
<linearGradient id="l6" x1="0" y1="0" x2="1" y2="0"><stop offset="0%" stop-color="#00bfff" stop-opacity=".35"/><stop offset="100%" stop-color="#a855f7" stop-opacity=".05"/></linearGradient>
<linearGradient id="bar" x1="0" y1="0" x2="1" y2="0"><stop offset="0%" stop-color="#111827"/><stop offset="100%" stop-color="#1a2235"/></linearGradient>
<filter id="g"><feGaussianBlur stdDeviation="2" result="b"/><feMerge><feMergeNode in="b"/><feMergeNode in="SourceGraphic"/></feMerge></filter>
<filter id="s"><feDropShadow dx="0" dy="2" stdDeviation="4" flood-color="#000" flood-opacity=".4"/></filter>
<marker id="a" viewBox="0 0 10 10" refX="5" refY="5" markerWidth="6" markerHeight="6" orient="auto"><path d="M0 0L10 5L0 10z" fill="#4b5563"/></marker></defs>

<rect width="900" height="600" fill="url(#bg)"/>
<text x="450" y="38" text-anchor="middle" fill="#f1f5f9" font-family="system-ui,sans-serif" font-size="20" font-weight="700" letter-spacing="1">Architecture Layers</text>
<text x="450" y="56" text-anchor="middle" fill="#94a3b8" font-family="system-ui,sans-serif" font-size="11">Autonomous Stack — Layered Component Architecture</text>

<line x1="450" y1="87" x2="450" y2="107" stroke="#4b5563" stroke-width="1.5" marker-end="url(#a)"/>
<line x1="450" y1="177" x2="450" y2="197" stroke="#4b5563" stroke-width="1.5" marker-end="url(#a)"/>
<line x1="450" y1="267" x2="450" y2="287" stroke="#4b5563" stroke-width="1.5" marker-end="url(#a)"/>
<line x1="450" y1="357" x2="450" y2="377" stroke="#4b5563" stroke-width="1.5" marker-end="url(#a)"/>
<line x1="450" y1="447" x2="450" y2="467" stroke="#4b5563" stroke-width="1.5" marker-end="url(#a)"/>

<!-- L6 Executive -->
<g filter="url(#s)"><rect x="60" y="70" width="780" height="80" rx="8" fill="url(#bar)" stroke="#1e3a5f" stroke-width="1"/><rect x="60" y="70" width="780" height="80" rx="8" fill="url(#l6)"/></g>
<text class="gv-node" data-tip="Executive Systems — 12 subsistemas autónomos: Auto-Apply Safe, Circuit Breaker, Auto-Escalation, Dependency Graph, AB Testing, Session Scoring, Norms Learner, Watchtower, Security Orch, State Persistence, Tracing, Cloud Connectors" x="80" y="96" fill="#00bfff" font-family="system-ui,sans-serif" font-size="12" font-weight="700" filter="url(#g)">EXECUTIVE</text>
<text x="80" y="112" fill="#94a3b8" font-family="system-ui,sans-serif" font-size="10">12 systems · Orchestration layer</text>
<g fill="#00bfff" fill-opacity=".12" stroke="#00bfff" stroke-width=".5"><rect x="160" y="83" width="72" height="22" rx="4"/><rect x="238" y="83" width="72" height="22" rx="4"/><rect x="316" y="83" width="72" height="22" rx="4"/><rect x="394" y="83" width="72" height="22" rx="4"/><rect x="472" y="83" width="72" height="22" rx="4"/><rect x="550" y="83" width="72" height="22" rx="4"/></g>
<g fill="#a855f7" fill-opacity=".12" stroke="#a855f7" stroke-width=".5"><rect x="628" y="83" width="72" height="22" rx="4"/><rect x="706" y="83" width="72" height="22" rx="4"/></g>
<g fill="#00bfff" font-family="system-ui,sans-serif" font-size="9" text-anchor="middle"><text x="196" y="98">Router</text><text x="274" y="98">Delegate</text><text x="352" y="98">Scoring</text><text x="430" y="98">Circuit</text><text x="508" y="98">Escalate</text><text x="586" y="98">Norms</text></g>
<g fill="#a855f7" font-family="system-ui,sans-serif" font-size="9" text-anchor="middle"><text x="664" y="98">Auto-Apply</text><text x="742" y="98">Rollback</text></g>
<rect x="757" y="72" width="24" height="16" rx="8" fill="#00bfff"/><text x="769" y="84" text-anchor="middle" fill="#0a0e1a" font-family="system-ui,sans-serif" font-size="9" font-weight="700">12</text>

<!-- L5 Data -->
<g filter="url(#s)"><rect x="60" y="160" width="780" height="80" rx="8" fill="url(#bar)" stroke="#1e3a5f" stroke-width="1"/><rect x="60" y="160" width="780" height="80" rx="8" fill="url(#l5)"/></g>
<text class="gv-node" data-tip="Data Layer — Nexus SQLite DB con 11 repositorios (10 DAOs + MigrationRunner), 7 migraciones, 21 tablas" x="80" y="186" fill="#ef4444" font-family="system-ui,sans-serif" font-size="12" font-weight="700">DATA</text>
<text x="80" y="202" fill="#94a3b8" font-family="system-ui,sans-serif" font-size="10">10 DAOs · SQLite Nexus</text>
<g fill-opacity=".12" stroke-width=".5" font-family="system-ui,sans-serif" font-size="8" text-anchor="middle">
<rect x="160" y="173" width="60" height="22" rx="4" fill="#ef4444" stroke="#ef4444"/><text x="190" y="188" fill="#ef4444">Metrics</text>
<rect x="226" y="173" width="60" height="22" rx="4" fill="#ef4444" stroke="#ef4444"/><text x="256" y="188" fill="#ef4444">Session</text>
<rect x="292" y="173" width="60" height="22" rx="4" fill="#ef4444" stroke="#ef4444"/><text x="322" y="188" fill="#ef4444">Trace</text>
<rect x="358" y="173" width="60" height="22" rx="4" fill="#ef4444" stroke="#ef4444"/><text x="388" y="188" fill="#ef4444">Event</text>
<rect x="424" y="173" width="60" height="22" rx="4" fill="#22c55e" stroke="#22c55e"/><text x="454" y="188" fill="#22c55e">Cache</text>
<rect x="490" y="173" width="60" height="22" rx="4" fill="#22c55e" stroke="#22c55e"/><text x="520" y="188" fill="#22c55e">Skill</text>
<rect x="556" y="173" width="60" height="22" rx="4" fill="#a855f7" stroke="#a855f7"/><text x="586" y="188" fill="#a855f7">Contract</text>
<rect x="622" y="173" width="60" height="22" rx="4" fill="#a855f7" stroke="#a855f7"/><text x="652" y="188" fill="#a855f7">ErrMem</text>
<rect x="688" y="173" width="60" height="22" rx="4" fill="#f59e0b" stroke="#f59e0b"/><text x="718" y="188" fill="#f59e0b">Housekeep</text>
<rect x="754" y="173" width="60" height="22" rx="4" fill="#f59e0b" stroke="#f59e0b"/><text x="784" y="188" fill="#f59e0b">Migrate</text></g>
<rect x="757" y="162" width="24" height="16" rx="8" fill="#ef4444"/><text x="769" y="174" text-anchor="middle" fill="#0a0e1a" font-family="system-ui,sans-serif" font-size="9" font-weight="700">10</text>

<!-- L4 Memory -->
<g filter="url(#s)"><rect x="60" y="250" width="780" height="80" rx="8" fill="url(#bar)" stroke="#1e3a5f" stroke-width="1"/><rect x="60" y="250" width="780" height="80" rx="8" fill="url(#l4)"/></g>
<text class="gv-node" data-tip="Memory Layer — Engram (2078 obs), CodeGraph (10663 nodos), Graphify, ML Embeddings, Nexus, Knowledge Vault" x="80" y="276" fill="#f59e0b" font-family="system-ui,sans-serif" font-size="12" font-weight="700">MEMORY</text>
<text x="80" y="292" fill="#94a3b8" font-family="system-ui,sans-serif" font-size="10">4 nodes · Persistent knowledge</text>
<g fill="#f59e0b" fill-opacity=".1" stroke="#f59e0b" stroke-width=".5" rx="6"><rect x="160" y="263" width="140" height="28"/><rect x="315" y="263" width="140" height="28"/><rect x="470" y="263" width="140" height="28"/><rect x="625" y="263" width="140" height="28"/></g>
<g fill="#f59e0b" font-family="system-ui,sans-serif" font-size="10" text-anchor="middle"><text x="230" y="281">Engram</text><text x="385" y="281">Session</text><text x="540" y="281">CodeGraph</text><text x="695" y="281">Checkpoints</text></g>
<rect x="757" y="252" width="24" height="16" rx="8" fill="#f59e0b"/><text x="769" y="264" text-anchor="middle" fill="#0a0e1a" font-family="system-ui,sans-serif" font-size="9" font-weight="700">4</text>

<!-- L3 Pipeline -->
<g filter="url(#s)"><rect x="60" y="340" width="780" height="80" rx="8" fill="url(#bar)" stroke="#1e3a5f" stroke-width="1"/><rect x="60" y="340" width="780" height="80" rx="8" fill="url(#l3)"/></g>
<text class="gv-node" data-tip="Pipeline — 105 pasos configurados (101 habilitados), 31 Phase 1 paralelos + 70 lazy background" x="80" y="366" fill="#22c55e" font-family="system-ui,sans-serif" font-size="12" font-weight="700">PIPELINE</text>
<text x="80" y="382" fill="#94a3b8" font-family="system-ui,sans-serif" font-size="10">101 steps · Parallel + lazy</text>
<rect x="160" y="353" width="260" height="24" rx="6" fill="#22c55e" fill-opacity=".1" stroke="#22c55e" stroke-width=".5"/><text x="290" y="369" text-anchor="middle" fill="#22c55e" font-family="system-ui,sans-serif" font-size="9">Phase 1 (31 parallel)</text>
<text x="430" y="369" fill="#4b5563" font-family="system-ui,sans-serif" font-size="14">→</text>
<rect x="450" y="353" width="280" height="24" rx="6" fill="#22c55e" fill-opacity=".1" stroke="#22c55e" stroke-width=".5"/><text x="590" y="369" text-anchor="middle" fill="#22c55e" font-family="system-ui,sans-serif" font-size="9">Phase 2 (70 lazy background)</text>
<g fill="#22c55e" fill-opacity=".15" rx="4"><rect x="175" y="383" width="36" height="14"/><rect x="215" y="383" width="36" height="14"/><rect x="255" y="383" width="36" height="14"/><rect x="295" y="383" width="36" height="14"/><rect x="335" y="383" width="50" height="14"/></g>
<g fill="#22c55e" font-family="system-ui,sans-serif" font-size="7" text-anchor="middle"><text x="193" y="393">T-Det</text><text x="233" y="393">S-Man</text><text x="273" y="393">T-Bud</text><text x="313" y="393">Karp</text><text x="360" y="393">+27 more</text></g>
<rect x="757" y="342" width="24" height="16" rx="8" fill="#22c55e"/><text x="769" y="354" text-anchor="middle" fill="#0a0e1a" font-family="system-ui,sans-serif" font-size="9" font-weight="700">97</text>

<!-- L2 Agents -->
<g filter="url(#s)"><rect x="60" y="430" width="780" height="80" rx="8" fill="url(#bar)" stroke="#1e3a5f" stroke-width="1"/><rect x="60" y="430" width="780" height="80" rx="8" fill="url(#l2)"/></g>
<text class="gv-node" data-tip="Agents — 21 subagentes especializados: orchestrator, sdd-explore/design/apply/verify, doc, ops, gov, session, premortem, maintenance, self-diag, sia + business" x="80" y="456" fill="#a855f7" font-family="system-ui,sans-serif" font-size="12" font-weight="700">AGENTS</text>
<text x="80" y="472" fill="#94a3b8" font-family="system-ui,sans-serif" font-size="10">21 types · Specialized subagents</text>
<g fill="#a855f7" fill-opacity=".12" stroke="#a855f7" stroke-width=".5" rx="4"><rect x="160" y="443" width="54" height="22"/><rect x="220" y="443" width="54" height="22"/><rect x="280" y="443" width="54" height="22"/><rect x="340" y="443" width="54" height="22"/><rect x="400" y="443" width="54" height="22"/><rect x="460" y="443" width="54" height="22"/><rect x="520" y="443" width="54" height="22"/><rect x="580" y="443" width="54" height="22"/><rect x="640" y="443" width="54" height="22"/><rect x="700" y="443" width="54" height="22"/></g>
<g fill="#a855f7" font-family="system-ui,sans-serif" font-size="8" text-anchor="middle"><text x="187" y="458">Explore</text><text x="247" y="458">General</text><text x="307" y="458">SDD-Eng</text><text x="367" y="458">SDD-QA</text><text x="427" y="458">Session</text><text x="487" y="458">Doc</text><text x="547" y="458">Premortem</text><text x="607" y="458">Gov</text><text x="667" y="458">Ops</text><text x="727" y="458">+11 more</text></g>
<rect x="757" y="432" width="24" height="16" rx="8" fill="#a855f7"/><text x="769" y="444" text-anchor="middle" fill="#0a0e1a" font-family="system-ui,sans-serif" font-size="9" font-weight="700">21</text>

<!-- L1 Tools -->
<g filter="url(#s)"><rect x="60" y="520" width="780" height="60" rx="8" fill="url(#bar)" stroke="#1e3a5f" stroke-width="1"/><rect x="60" y="520" width="780" height="60" rx="8" fill="url(#l1)"/></g>
<text class="gv-node" data-tip="Tools — 10 integraciones IDE: OpenCode, Claude Code, Cursor, Windsurf, Cline, Codex, Copilot, Continue.dev, Aider, Roo Code" x="80" y="544" fill="#00bfff" font-family="system-ui,sans-serif" font-size="12" font-weight="700">TOOLS</text>
<text x="80" y="558" fill="#94a3b8" font-family="system-ui,sans-serif" font-size="10">10 capabilities · Execution primitives</text>
<g fill="#00bfff" fill-opacity=".12" stroke="#00bfff" stroke-width=".5" rx="4"><rect x="160" y="534" width="50" height="20"/><rect x="216" y="534" width="50" height="20"/><rect x="272" y="534" width="50" height="20"/><rect x="328" y="534" width="50" height="20"/><rect x="384" y="534" width="50" height="20"/><rect x="440" y="534" width="50" height="20"/><rect x="496" y="534" width="50" height="20"/><rect x="552" y="534" width="50" height="20"/><rect x="608" y="534" width="50" height="20"/><rect x="664" y="534" width="50" height="20"/></g>
<g fill="#00bfff" font-family="system-ui,sans-serif" font-size="8" text-anchor="middle"><text x="185" y="548">Bash</text><text x="241" y="548">Read</text><text x="297" y="548">Write</text><text x="353" y="548">Edit</text><text x="409" y="548">Grep</text><text x="465" y="548">Glob</text><text x="521" y="548">Task</text><text x="577" y="548">Skill</text><text x="633" y="548">Question</text><text x="689" y="548">Engram</text></g>
<rect x="757" y="522" width="24" height="16" rx="8" fill="#00bfff"/><text x="769" y="534" text-anchor="middle" fill="#0a0e1a" font-family="system-ui,sans-serif" font-size="9" font-weight="700">10</text>

<text x="25" y="110" text-anchor="middle" fill="#94a3b8" font-family="system-ui,sans-serif" font-size="8" transform="rotate(-90,25,110)">TOP</text>
<text x="25" y="550" text-anchor="middle" fill="#94a3b8" font-family="system-ui,sans-serif" font-size="8" transform="rotate(-90,25,550)">BOTTOM</text>
<line x1="60" y1="585" x2="840" y2="585" stroke="#1e3a5f" stroke-width=".5"/>
<text x="450" y="596" text-anchor="middle" fill="#4b5563" font-family="system-ui,sans-serif" font-size="9">Gentle-Vanguard v3.5.0 — Autonomous AI Stack</text>
</svg>
